<?xml version="1.0" standalone="no"?><!DOCTYPE svg PUBLIC "-//W3C//DTD SVG 1.1//EN"
        "http://www.w3.org/Graphics/SVG/1.1/DTD/svg11.dtd">
<svg t="1711094484221" class="icon" viewBox="0 0 1024 1024" version="1.1" xmlns="http://www.w3.org/2000/svg" p-id="4259"
     width="20" height="20" transform="rotate(90)" xmlns:xlink="http://www.w3.org/1999/xlink">
    <path d="M956.60032 537.88672l-18.46272 5.29408-9.82016 20.59264h12.62592v67.11296c0 8.94976-3.40992 16.19968-7.59808 16.19968L642.1504 563.77344H330.99776c-1.81248 0-3.62496-0.02048-5.41696-0.0512V460.27776c1.80224-0.03072 3.61472-0.0512 5.41696-0.0512h317.27616l285.07136-83.31264c4.18816 0 7.59808 7.24992 7.59808 16.20992v67.10272h-18.33984l15.53408 21.49376 18.46272 5.51936c12.42112 26.25536 0 50.64704 0 50.64704zM61.88032 509.40928c0 25.81504 181.31968 49.80736 241.67424 53.72928v-102.25664c-60.35456 3.91168-241.67424 22.72256-241.67424 48.52736z"
          p-id="4260" fill="#1296db"></path>
</svg>
